HIERARCHY
ROOT Hips
{
	OFFSET 0.000000 0.000000 0.000000 
	CHANNELS 6 Xposition Yposition Zposition Zrotation Yrotation Xrotation
	JOINT LeftUpLeg
	{
		OFFSET 1.363060 -1.794630 0.839290 
		CHANNELS 3 Zrotation Yrotation Xrotation
		JOINT LeftLeg
		{
			OFFSET 2.448110 -6.726130 0.000000 
			CHANNELS 3 Zrotation Yrotation Xrotation
			JOINT LeftFoot
			{
				OFFSET 2.562200 -7.039590 0.000000 
				CHANNELS 3 Zrotation Yrotation Xrotation
				JOINT LeftToeBase
				{
					OFFSET 0.157640 -0.433110 2.322550 
					CHANNELS 3 Zrotation Yrotation Xrotation
					End Site
					{
						OFFSET 0.000000 0.000000 0.000000 
					}
				}
			}
		}
	}
	JOINT RightUpLeg
	{
		OFFSET -1.305520 -1.794630 0.839290 
		CHANNELS 3 Zrotation Yrotation Xrotation
		JOINT RightLeg
		{
			OFFSET -2.542530 -6.985550 0.000000 
			CHANNELS 3 Zrotation Yrotation Xrotation
			JOINT RightFoot
			{
				OFFSET -2.568260 -7.056230 0.000000 
				CHANNELS 3 Zrotation Yrotation Xrotation
				JOINT RightToeBase
				{
					OFFSET -0.164730 -0.452590 2.363150 
					CHANNELS 3 Zrotation Yrotation Xrotation
					End Site
					{
						OFFSET 0.000000 0.000000 0.000000 
					}
				}
			}
		}
	}
	JOINT Spine
	{
		OFFSET 0.028270 2.035590 -0.193380 
		CHANNELS 3 Zrotation Yrotation Xrotation
		JOINT Spine1
		{
			OFFSET 0.056720 2.048850 -0.042750 
			CHANNELS 3 Zrotation Yrotation Xrotation
			JOINT Neck1
			{
				OFFSET -0.054170 1.746240 0.172020 
				CHANNELS 3 Zrotation Yrotation Xrotation
				JOINT Head
				{
					OFFSET 0.104070 1.761360 -0.123970 
					CHANNELS 3 Zrotation Yrotation Xrotation
					End Site
					{
						OFFSET 0.000000 0.000000 0.000000 
					}
				}
			}
			JOINT LeftArm
			{
				OFFSET 3.362410 1.200890 -0.311210 
				CHANNELS 3 Zrotation Yrotation Xrotation
				JOINT LeftForeArm
				{
					OFFSET 4.983000 -0.000000 -0.000000 
					CHANNELS 3 Zrotation Yrotation Xrotation
					JOINT LeftHand
					{
						OFFSET 3.483560 -0.000000 -0.000000 
						CHANNELS 3 Zrotation Yrotation Xrotation
						JOINT LeftHandIndex1
						{
							OFFSET 0.715260 -0.000000 -0.000000 
							CHANNELS 3 Zrotation Yrotation Xrotation
							End Site
							{
								OFFSET 0.000000 0.000000 0.000000 
							}
						}
					}
				}
			}
			JOINT RightArm
			{
				OFFSET -3.136600 1.374050 -0.404650 
				CHANNELS 3 Zrotation Yrotation Xrotation
				JOINT RightForeArm
				{
					OFFSET -5.241900 -0.000000 -0.000000 
					CHANNELS 3 Zrotation Yrotation Xrotation
					JOINT RightHand
					{
						OFFSET -3.444170 -0.000000 -0.000000 
						CHANNELS 3 Zrotation Yrotation Xrotation
						JOINT RightHandIndex1
						{
							OFFSET -0.622530 -0.000000 -0.000000 
							CHANNELS 3 Zrotation Yrotation Xrotation
							End Site
							{
								OFFSET 0.000000 0.000000 0.000000 
							}
						}
					}
				}
			}
		}
	}
}
MOTION
Frames: 12
Frame Time: 0.041667
13.141643 17.236314 7.328583 112.398995 -86.836789 -110.707621 -6.066203 6.075130 -30.065462 10.219652 17.198718 57.637189 6.258026 -8.910252 -2.278972 0.090600 -1.941800 -5.344900 6.746275 9.390840 -26.471032 -10.831742 -17.482372 60.559235 2.148549 -8.511717 -5.471497 -1.887700 8.628000 -24.638500 0.415669 -1.189689 -2.131556 -0.881744 -0.963735 -0.151453 2.758889 3.545784 5.257290 -0.871400 1.774100 4.125200 -49.079761 -0.933633 -10.248173 13.990694 -21.898035 -6.124887 -1.958323 -5.884638 -5.413706 -7.125000 0.000000 0.000000 63.709911 -1.215687 -12.496190 -27.702614 35.018507 -15.871703 4.648681 -1.461059 -10.621674 7.125000 0.000000 0.000000 
13.121799 17.300377 7.322004 108.380902 -86.681098 -106.664569 -6.254269 6.252688 -29.679060 9.787297 17.009639 56.531050 6.172768 -8.608850 -1.608105 0.077500 -1.795900 -4.941900 6.457097 8.901263 -26.090267 -10.505945 -17.368332 59.535365 2.502508 -9.179732 -5.037997 -2.037400 8.943500 -25.618700 0.424407 -1.326043 -2.119665 -0.418263 -1.068303 0.193865 2.808972 3.687668 5.527335 -0.776700 1.849200 4.317200 -46.676103 -0.770890 -11.222157 13.969265 -22.058195 -6.341470 -1.817086 -6.043914 -6.871401 -7.125000 0.000000 0.000000 62.076242 -1.439397 -13.755516 -28.859260 35.878076 -17.019611 4.793988 -1.293212 -11.687573 7.125000 0.000000 0.000000 
13.103033 17.389894 7.326318 103.849559 -86.925671 -102.071948 -6.081977 6.382135 -29.276926 9.340785 16.810487 55.292823 6.300347 -8.801718 -0.637737 0.043500 -1.346700 -3.703200 6.422962 8.392238 -25.740074 -10.117176 -17.210541 58.395559 1.948846 -8.079968 -4.108261 -1.616100 8.016000 -22.762700 0.412128 -1.446483 -2.132765 -0.438325 -1.128128 0.413093 2.783902 3.680729 5.722747 -0.712900 1.845900 4.447200 -44.278550 -0.764067 -12.407512 13.976325 -22.165840 -6.551710 -1.823417 -6.237580 -8.083377 -7.125000 0.000000 0.000000 60.168367 -1.646226 -15.152670 -29.567940 36.374580 -17.843261 5.046176 -1.197489 -12.939496 7.125000 0.000000 0.000000 
13.089228 17.487068 7.338397 100.398902 -87.004338 -98.381601 -6.003079 6.253475 -28.986032 8.859435 16.567732 54.004820 6.468126 -9.143201 0.515157 0.003900 -0.401600 -1.103400 6.242792 8.126115 -25.457392 -9.713558 -17.017808 57.113252 2.312051 -8.746944 -3.319398 -1.787500 8.408700 -23.962600 0.358567 -1.487288 -2.198990 -0.643826 -1.125099 0.444700 2.681615 3.623219 5.820842 -0.774300 1.819500 4.512000 -41.785810 -0.694613 -13.472685 13.979381 -22.258042 -6.777526 -1.888051 -6.517607 -8.997257 -7.125000 0.000000 0.000000 57.828414 -1.600007 -16.727931 -29.556370 36.318110 -18.090730 5.298271 -1.157127 -14.036437 7.125000 0.000000 0.000000 
13.077148 17.597831 7.345407 99.679991 -86.649238 -97.377248 -6.250084 6.079401 -28.711937 8.295241 16.265200 52.625173 6.311543 -8.766182 1.794914 0.000100 0.073800 0.202700 5.656788 8.185967 -25.115516 -9.313130 -16.808596 55.687832 3.018153 -10.059487 -2.254686 -2.139500 9.150900 -26.268500 0.316788 -1.480133 -2.324447 -0.442214 -1.113541 0.163295 2.689549 3.635993 5.896873 -0.764400 1.831200 4.539600 -39.533357 -0.328009 -14.259543 14.043815 -22.441761 -7.059336 -1.834800 -6.774030 -10.142773 -7.125000 0.000000 0.000000 55.610394 -1.783015 -18.317185 -29.986134 36.545918 -18.715135 5.388701 -1.100067 -15.132529 7.125000 0.000000 0.000000 
13.067873 17.735988 7.353388 98.809005 -86.425708 -96.169775 -6.394312 6.040313 -28.457243 7.648563 15.911474 51.041076 6.041542 -8.166695 3.663431 0.000700 0.175000 0.480900 5.045993 8.250874 -24.836434 -8.857526 -16.580148 54.227018 2.371578 -8.811465 -0.414801 -1.613200 8.009200 -22.742000 0.281215 -1.407414 -2.430022 -0.221085 -1.078032 -0.006916 2.768788 3.568197 5.969508 -0.620100 1.797500 4.585900 -37.368642 -0.207322 -14.895648 14.093116 -22.552661 -7.307738 -1.709738 -6.972584 -11.403855 -7.125000 0.000000 0.000000 53.832629 -2.262419 -20.045473 -30.989565 37.146749 -19.851120 5.431521 -0.943033 -15.974178 7.125000 0.000000 0.000000 
13.056657 17.908873 7.363311 95.920592 -86.502094 -92.975089 -6.225685 6.107734 -28.148722 6.952807 15.531188 49.277486 5.967868 -7.995587 6.076887 0.001200 0.219600 0.603300 4.632612 8.159098 -24.486330 -8.313889 -16.299918 52.659484 1.048271 -6.323935 1.891354 -0.835500 5.831000 -16.294900 0.282500 -1.310421 -2.462239 -0.036036 -1.042522 0.156574 2.661735 3.499114 6.006296 -0.602100 1.746600 4.646000 -35.272591 -0.455058 -15.687417 14.115015 -22.574288 -7.525445 -1.572219 -7.176919 -12.470485 -7.125000 0.000000 0.000000 51.935610 -2.768344 -21.510715 -31.574755 37.476783 -20.649810 5.578263 -0.718539 -16.756762 7.125000 0.000000 0.000000 
13.038861 18.103652 7.369458 93.051964 -86.670787 -89.929266 -5.920219 6.379204 -27.780988 6.257185 15.140141 47.443970 5.790608 -7.465578 8.491676 0.010500 -0.661800 -1.818800 4.375389 7.972337 -23.916213 -7.723409 -15.957274 50.868181 0.701818 -5.740718 4.236361 -0.801000 5.712400 -15.952100 0.256558 -1.169639 -2.473552 -0.064748 -0.979267 0.294776 2.352492 3.274310 5.982177 -0.840800 1.621200 4.653700 -33.041485 -0.656264 -16.298975 14.222240 -22.695157 -7.818376 -1.472095 -7.413799 -13.815792 -7.125000 0.000000 0.000000 50.315229 -3.446236 -22.776371 -32.075098 37.769698 -21.369948 5.699114 -0.506932 -17.769933 7.125000 0.000000 0.000000 
13.021929 18.306304 7.378626 91.761664 -86.893058 -88.410207 -5.540386 6.568408 -27.388352 5.544523 14.699650 45.525262 5.554168 -6.753160 11.185996 0.053300 -1.489700 -4.097300 4.137382 7.664001 -23.410038 -7.097536 -15.572141 48.912968 0.630377 -5.760939 6.814775 -1.026600 6.445300 -18.082200 0.168116 -1.011983 -2.524091 -0.444684 -0.883443 0.300540 2.121742 2.933333 6.114835 -1.042700 1.456900 4.786200 -30.796911 -0.704356 -16.469024 14.483487 -22.966290 -8.194604 -1.650654 -7.747650 -15.693058 -7.125000 0.000000 0.000000 49.192039 -4.113264 -24.309164 -32.854244 38.194546 -22.331591 5.685368 -0.329277 -18.425573 7.125000 0.000000 0.000000 
13.006614 18.519202 7.384989 90.383430 -87.082612 -86.706556 -5.075555 6.481293 -26.922753 4.786526 14.200943 43.516986 5.502651 -6.444264 14.358242 0.074800 -1.764300 -4.854600 3.836084 7.407024 -23.003463 -6.428960 -15.147321 46.929588 0.122345 -5.019815 9.740169 -0.932100 6.150100 -17.220600 0.190150 -1.113543 -2.609867 -0.290070 -0.924095 0.272719 2.111152 3.071282 6.411448 -0.991000 1.526300 5.017600 -29.193624 -0.288884 -16.716134 14.773007 -23.305506 -8.592411 -1.857702 -8.121140 -17.425743 -7.125000 0.000000 0.000000 47.626229 -4.392559 -25.396645 -33.512345 38.493095 -23.195013 5.647900 -0.164182 -18.639198 7.125000 0.000000 0.000000 
12.984828 18.745904 7.390166 86.462183 -87.164412 -82.425340 -4.666105 6.300879 -26.460874 4.029402 13.680802 41.514947 5.540459 -6.270921 17.524374 0.108700 -2.125700 -5.853100 3.412153 7.037019 -22.627087 -5.754857 -14.691336 44.898528 -0.332105 -4.490572 13.056283 -0.876000 5.967200 -16.689200 0.203565 -1.309316 -2.661749 -0.127598 -1.009200 0.373483 2.094100 3.376222 6.472966 -0.942800 1.673400 5.014000 -27.568352 0.075440 -17.456364 14.912105 -23.478246 -8.915367 -1.762408 -8.403836 -18.197425 -7.125000 0.000000 0.000000 46.014285 -4.578791 -26.361290 -33.941057 38.658358 -23.850472 5.698968 -0.118546 -18.826813 7.125000 0.000000 0.000000 
12.964552 18.980265 7.405157 82.161712 -87.104834 -77.734225 -4.393564 6.242696 -26.159490 3.287890 13.140467 39.554945 5.615172 -6.131279 20.806186 0.105800 -2.097500 -5.775300 2.796066 6.455797 -22.375370 -5.061629 -14.206156 42.823360 -0.922747 -3.817226 16.683074 -0.837700 5.838600 -16.316700 0.141114 -1.363481 -2.685942 -0.253943 -1.018931 0.528769 2.079318 3.443554 6.326911 -0.893800 1.705800 4.826900 -25.764259 0.018995 -18.238781 14.933905 -23.461522 -9.124591 -1.622151 -8.593275 -18.589875 -7.125000 0.000000 0.000000 44.605490 -4.970138 -27.680419 -34.324721 38.805330 -24.488465 5.778688 -0.088894 -19.004723 7.125000 0.000000 0.000000 
